<?xml version="1.0" encoding="iso-8859-1"?>
<!-- Uploaded to: SVG Repo, www.svgrepo.com, Generator: SVG Repo Mixer Tools -->
<svg version="1.1" id="Layer_1" xmlns="http://www.w3.org/2000/svg" xmlns:xlink="http://www.w3.org/1999/xlink" 
	 viewBox="0 0 512 512" xml:space="preserve">
<rect x="68" y="4" style="fill:#FFFFFF;" width="376" height="504"/>
<path style="fill:#25B6D2;" d="M440,8v496H72V8H440 M448,0H64v512h384V0z"/>
<rect x="301.72" y="389.632" style="fill:#415E72;" width="77.024" height="9.592"/>
<rect x="240.08" y="389.632" style="fill:#E04F5F;" width="30.824" height="9.592"/>
<rect x="140.8" y="389.632" style="fill:#AEC4CE;" width="68.496" height="9.592"/>
<rect x="330.16" y="320.48" style="fill:#415E72;" width="30.816" height="9.592"/>
<rect x="239.032" y="320.48" style="fill:#E04F5F;" width="46.208" height="9.592"/>
<rect x="131.208" y="320.48" style="fill:#AEC4CE;" width="61.608" height="9.592"/>
<rect x="131.208" y="251.336" style="fill:#25B6D2;" width="61.608" height="9.592"/>
<rect x="223.64" y="251.336" style="fill:#415E72;" width="61.616" height="9.592"/>
<rect x="300.664" y="251.336" style="fill:#AEC4CE;" width="61.608" height="9.592"/>
<rect x="346.88" y="285.912" style="fill:#25B6D2;" width="30.808" height="9.592"/>
<rect x="269.848" y="285.912" style="fill:#AEC4CE;" width="30.816" height="9.592"/>
<rect x="148.672" y="285.912" style="fill:#E04F5F;" width="57.912" height="9.592"/>
<rect x="325.032" y="113.04" style="fill:#25B6D2;" width="30.808" height="9.592"/>
<rect x="248" y="113.04" style="fill:#AEC4CE;" width="30.808" height="9.592"/>
<rect x="126.824" y="113.04" style="fill:#E04F5F;" width="57.92" height="9.592"/>
<rect x="131.208" y="355.04" style="fill:#415E72;" width="154.032" height="9.592"/>
<rect x="331.44" y="355.04" style="fill:#25B6D2;" width="61.616" height="9.592"/>
<rect x="346.88" y="216.8" style="fill:#E04F5F;" width="30.808" height="9.592"/>
<rect x="269.848" y="216.8" style="fill:#25B6D2;" width="30.816" height="9.592"/>
<rect x="131.208" y="216.8" style="fill:#E04F5F;" width="92.424" height="9.592"/>
<rect x="300.664" y="147.616" style="fill:#415E72;" width="77.016" height="9.592"/>
<rect x="239.032" y="147.616" style="fill:#E04F5F;" width="30.824" height="9.592"/>
<rect x="139.728" y="147.616" style="fill:#AEC4CE;" width="68.496" height="9.592"/>
<rect x="316.056" y="182.184" style="fill:#25B6D2;" width="61.616" height="9.592"/>
<rect x="254.432" y="182.184" style="fill:#AEC4CE;" width="30.808" height="9.592"/>
<g>
	<rect x="118.928" y="182.184" style="fill:#415E72;" width="73.888" height="9.592"/>
	<path style="fill:#415E72;" d="M111.848,58l20.056-10.328v2.984l-16.896,8.472V59.2l16.896,8.48v2.984l-20.056-10.328
		C111.848,60.336,111.848,58,111.848,58z"/>
	<path style="fill:#415E72;" d="M137.52,66.088c2.04,1.216,4.368,1.872,6.744,1.896c3.84,0,6.096-2.032,6.096-4.968
		c0-2.728-1.552-4.28-5.496-5.792c-4.752-1.688-7.688-4.152-7.688-8.256c0.232-4.624,4.16-8.192,8.784-7.96
		c0.216,0.008,0.424,0.032,0.64,0.056c2.216-0.064,4.424,0.424,6.4,1.432l-1,3.056c-1.696-0.912-3.6-1.384-5.528-1.384
		c-4,0-5.488,2.4-5.488,4.368c0,2.72,1.768,4.064,5.792,5.6c4.92,1.896,7.432,4.28,7.432,8.552c0,4.504-3.328,8.384-10.192,8.384
		c-2.6,0.032-5.16-0.608-7.44-1.856L137.52,66.088z"/>
	<path style="fill:#415E72;" d="M174.4,69.88c-1.888,0.848-3.944,1.256-6.008,1.208c-5.48,0.272-10.144-3.952-10.416-9.432
		c-0.024-0.416-0.016-0.824,0.016-1.24c-0.272-5.864,4.256-10.832,10.12-11.112c0.36-0.016,0.72-0.016,1.08,0.008
		c1.816-0.024,3.616,0.344,5.272,1.08l-0.864,2.936c-1.36-0.712-2.88-1.048-4.408-0.992c-3.976-0.128-7.296,2.992-7.424,6.968
		c-0.008,0.312,0,0.624,0.032,0.936c-0.344,3.96,2.584,7.456,6.552,7.8c0.24,0.024,0.48,0.032,0.712,0.024
		c1.616,0.008,3.208-0.352,4.664-1.04L174.4,69.88z"/>
	<path style="fill:#415E72;" d="M178.848,56.272c0-2.464-0.048-4.576-0.168-6.52h3.328l0.128,4.104h0.168
		c0.736-2.616,3.072-4.464,5.792-4.576c0.368,0,0.736,0.04,1.088,0.136V53c-0.424-0.096-0.864-0.136-1.296-0.136
		c-2.688,0.104-4.88,2.2-5.104,4.88c-0.104,0.584-0.16,1.184-0.168,1.776v11.144h-3.76L178.848,56.272z"/>
	<path style="fill:#415E72;" d="M197.392,43.872c0,1.304-1.056,2.36-2.36,2.36s-2.36-1.056-2.36-2.36
		c-0.048-1.28,0.96-2.352,2.24-2.4c0.056,0,0.112,0,0.16,0c1.248-0.032,2.28,0.952,2.312,2.192
		C197.4,43.736,197.4,43.8,197.392,43.872z M193.16,70.664V49.752h3.808v20.912H193.16z"/>
	<path style="fill:#415E72;" d="M203.272,56.576c0-2.68-0.088-4.84-0.168-6.832h3.416l0.168,3.584h0.088
		c1.536-2.624,4.392-4.184,7.432-4.064c5.224,0.304,9.216,4.792,8.912,10.016c-0.016,0.208-0.032,0.408-0.056,0.616
		c0.72,5.416-3.08,10.392-8.504,11.12c-0.336,0.048-0.664,0.072-1,0.08c-2.56,0.104-4.992-1.144-6.4-3.288h-0.088V79.2h-3.76
		L203.272,56.576z M207.032,62.176c0.008,0.52,0.064,1.04,0.168,1.552c0.648,2.616,3.008,4.456,5.704,4.456
		c4,0,6.352-3.28,6.352-8.08c0-4.192-2.2-7.784-6.216-7.784c-2.768,0.072-5.136,2.016-5.752,4.712
		c-0.152,0.504-0.232,1.024-0.256,1.552V62.176z"/>
	<path style="fill:#415E72;" d="M232.44,43.744v6.008h5.448v2.888h-5.448v11.28c0,2.592,0.736,4.064,2.848,4.064
		c0.744,0.008,1.48-0.08,2.2-0.256l0.168,2.848c-1.08,0.376-2.224,0.552-3.368,0.512c-1.536,0.088-3.04-0.496-4.112-1.6
		c-1.16-1.568-1.68-3.512-1.472-5.448v-11.4h-3.2v-2.888h3.2v-5.016L232.44,43.744z"/>
	<path style="fill:#415E72;" d="M261.92,60.384l-20.056,10.28V67.68l17.024-8.48v-0.072l-17.024-8.472v-2.984L261.92,57.96
		L261.92,60.384L261.92,60.384z"/>
	<path style="fill:#415E72;" d="M111.848,452.664l20.056-10.328v2.984l-16.896,8.472v0.088l16.896,8.472v2.984l-20.056-10.328
		L111.848,452.664z"/>
	<path style="fill:#415E72;" d="M134.712,467.056l12.064-31.328h2.936L137.6,467.056H134.712z"/>
	<path style="fill:#415E72;" d="M152.352,460.752c2.04,1.216,4.368,1.872,6.744,1.896c3.84,0,6.096-2.032,6.096-4.968
		c0-2.728-1.552-4.28-5.496-5.792c-4.752-1.688-7.688-4.152-7.688-8.256c0.232-4.624,4.16-8.192,8.784-7.96
		c0.216,0.008,0.424,0.032,0.64,0.056c2.216-0.064,4.424,0.424,6.4,1.432l-1.04,3.064c-1.696-0.912-3.6-1.384-5.528-1.384
		c-4,0-5.488,2.4-5.488,4.368c0,2.72,1.768,4.064,5.792,5.6c4.92,1.896,7.432,4.28,7.432,8.552c0,4.504-3.328,8.384-10.192,8.384
		c-2.6,0.032-5.16-0.608-7.44-1.856L152.352,460.752z"/>
	<path style="fill:#415E72;" d="M189.216,464.544c-1.888,0.848-3.944,1.256-6.008,1.208c-5.48,0.272-10.144-3.952-10.416-9.432
		c-0.024-0.416-0.016-0.824,0.016-1.24c-0.264-5.864,4.28-10.824,10.144-11.088c0.352-0.016,0.704-0.016,1.048,0.008
		c1.816-0.024,3.616,0.344,5.272,1.08l-0.84,2.92c-1.368-0.712-2.896-1.056-4.432-0.992c-4.344,0.24-7.672,3.96-7.432,8.304
		c0.216,3.96,3.352,7.144,7.304,7.424c1.616,0.008,3.208-0.352,4.664-1.04L189.216,464.544z"/>
	<path style="fill:#415E72;" d="M193.68,450.936c0-2.464-0.048-4.576-0.168-6.52h3.288l0.128,4.104h0.168
		c0.736-2.616,3.072-4.464,5.792-4.576c0.368,0,0.736,0.04,1.088,0.136v3.584c-0.424-0.096-0.864-0.136-1.296-0.136
		c-2.688,0.104-4.88,2.2-5.104,4.88c-0.104,0.584-0.16,1.184-0.168,1.776v11.152h-3.76L193.68,450.936z"/>
	<path style="fill:#415E72;" d="M212.216,438.536c0,1.304-1.056,2.36-2.36,2.36s-2.36-1.056-2.36-2.36
		c-0.048-1.28,0.96-2.352,2.24-2.4c0.056,0,0.112,0,0.16,0c1.248-0.032,2.28,0.952,2.312,2.192
		C212.224,438.4,212.224,438.464,212.216,438.536z M208,465.328v-20.912h3.808v20.912H208z"/>
	<path style="fill:#415E72;" d="M218.096,451.24c0-2.68-0.088-4.84-0.168-6.832h3.416l0.168,3.584h0.088
		c1.536-2.624,4.392-4.184,7.432-4.064c5.224,0.304,9.216,4.792,8.912,10.016c-0.016,0.208-0.032,0.408-0.056,0.616
		c0.72,5.416-3.08,10.392-8.504,11.12c-0.336,0.048-0.664,0.072-1,0.08c-2.56,0.104-4.992-1.144-6.4-3.288h-0.088v11.368h-3.76
		L218.096,451.24z M221.856,456.84c0.008,0.52,0.064,1.04,0.168,1.552c0.648,2.616,3.008,4.456,5.704,4.456
		c4,0,6.352-3.28,6.352-8.08c0-4.192-2.2-7.784-6.216-7.784c-2.768,0.072-5.136,2.016-5.752,4.712
		c-0.152,0.504-0.232,1.024-0.256,1.552V456.84z"/>
	<path style="fill:#415E72;" d="M247.272,438.4v6.008h5.448v2.888h-5.448v11.28c0,2.592,0.736,4.064,2.848,4.064
		c0.744,0.008,1.48-0.08,2.2-0.256l0.168,2.848c-1.08,0.376-2.224,0.552-3.368,0.512c-1.536,0.088-3.04-0.496-4.112-1.6
		c-1.16-1.568-1.68-3.512-1.472-5.448v-11.392h-3.2v-2.888h3.2V439.4L247.272,438.4z"/>
	<path style="fill:#415E72;" d="M276.744,455.048l-20.056,10.28v-2.984l17.024-8.472v-0.088l-17.024-8.472v-2.984l20.056,10.288
		V455.048z"/>
</g>
</svg>